<svg xmlns="http://www.w3.org/2000/svg" viewBox="0 0 512 512" style="height: 512px; width: 512px;"><defs><radialGradient id="delapouite-hockey-gradient-9"><stop offset="0%" stop-color="#000000" stop-opacity="1"></stop><stop offset="100%" stop-color="#012044" stop-opacity="1"></stop></radialGradient></defs><polygon points="437.02,437.02,256,512,74.98,437.02,0,256,74.98,74.98,256,0,437.02,74.98,512,256" fill="#c9c9c9" fill-opacity="1"></polygon><g class="" transform="translate(-13,1)" style=""><g><path d="M404.4 18L385.758 66.578L448.256 75.988L470.98 18Z" class="" fill="#000000" fill-opacity="1"></path><path d="M379.154 83.787L330.354 210.945L325.35 211.835C309.947 214.575 294.37 216.945 278.64 218.992L317.734 304.512C334.09 298.747 350.194 292.594 365.982 285.957L441.522 93.177Z" class="" fill="#000000" fill-opacity="1"></path><path d="M259.89 221.27C252.54 222.102 245.158 222.868 237.744 223.564L273.051 319.15C282.311 316.33 291.504 313.407 300.624 310.373Z" class="" fill="#d0021b" fill-opacity="1"></path><path d="M219.146 225.168C211.016 225.81 202.854 226.383 194.656 226.878L228.033 332.016C237.329 329.521 246.573 326.95 255.76 324.291Z" class="" fill="#f5a623" fill-opacity="1"></path><path d="M176.088 227.878C167.596 228.278 159.068 228.608 150.512 228.868L180.977 343.955C190.897 341.565 200.774 339.115 210.6 336.59Z" class="selected" fill="#7ed321" fill-opacity="1"></path><path d="M37.378 228.785C34.221 228.859 32.238 229.937 29.898 232.367C27.226 235.145 24.568 240.149 22.734 246.895C19.066 260.385 18.704 280.267 21.584 299.941C24.464 319.617 30.566 339.228 38.371 352.564C42.275 359.231 46.587 364.258 50.605 367.14C54.579 369.99 57.891 370.904 61.775 370.36C70.209 368.582 78.622 366.785 87.04 364.992L104.3 229.627C82.723 229.707 60.98 229.434 39.08 228.827L38.943 228.822L38.809 228.814C38.304 228.784 37.829 228.774 37.379 228.784Z" class="" fill="#000000" fill-opacity="1"></path><path d="M132.014 229.332C128.839 229.392 125.65 229.425 122.467 229.469L105.693 361.007C125.043 356.83 144.313 352.559 163.451 348.099Z" class="" fill="#48baff" fill-opacity="1"></path><path d="M402.426 373.395C376.929 373.395 353.876 377.805 338.004 384.418C330.068 387.725 323.974 391.601 320.284 395.236C316.594 398.871 315.426 401.79 315.426 404.396C315.426 406.999 316.596 409.918 320.286 413.553C323.976 417.188 330.068 421.063 338.004 424.371C353.876 430.986 376.929 435.396 402.426 435.396C427.922 435.396 450.973 430.986 466.846 424.372C474.782 421.066 480.874 417.19 484.564 413.555C488.254 409.92 489.426 407.001 489.426 404.397C489.426 401.792 488.256 398.873 484.564 395.237C480.874 391.603 474.782 387.727 466.846 384.42C450.973 377.807 427.922 373.397 402.426 373.397Z" class="" fill="url(#delapouite-hockey-gradient-9)"></path><path d="M315.426 432.699L315.426 460.394C315.426 462.998 316.596 465.917 320.286 469.552C323.976 473.187 330.068 477.062 338.004 480.37C353.876 486.985 376.929 491.395 402.426 491.395C427.922 491.395 450.973 486.985 466.846 480.371C474.782 477.065 480.874 473.189 484.564 469.554C488.254 465.919 489.426 463 489.426 460.396L489.426 432.7C484.836 435.828 479.586 438.563 473.77 440.986C454.897 448.85 429.95 453.396 402.426 453.396C374.903 453.396 349.956 448.85 331.082 440.986C325.266 438.563 320.014 435.828 315.426 432.699Z" class="" fill="#000000" fill-opacity="1"></path></g></g></svg>