<svg xmlns="http://www.w3.org/2000/svg" viewBox="0 0 512 512" style="height: 512px; width: 512px;"><circle cx="256" cy="256" r="256" fill="#a70215" fill-opacity="1"></circle><g class="" transform="translate(0,0)" style=""><g transform="translate(25.6, 25.6) scale(0.9, 0.9) rotate(0, 256, 256) skewX(0) skewY(0)"><path d="M215 28.084C173.42 34.641 141.429 51.298 118.363 74.364C89.316 103.41 74.133 142.997 73.066 187L105 187L105 269L80.191 269C87.671 310.377 100.957 352.17 119.941 387.766C151.043 446.08 196.125 487 256 487C315.875 487 360.957 446.08 392.059 387.766C411.043 352.17 424.329 310.377 431.809 269L407 269L407 187L438.934 187C437.867 142.998 422.684 103.41 393.637 74.363C370.57 51.298 338.58 34.641 297 28.084L297 73L215 73L215 28.084Z" class="" fill="#ffffff" fill-opacity="1"></path><path d="M191 64C195.971 64 200 68.029 200 73C200 77.971 195.971 82 191 82C186.029 82 182 77.971 182 73C182 68.029 186.029 64 191 64Z" class="" fill="#000000" fill-opacity="1"></path><path d="M321 64C325.971 64 330 68.029 330 73C330 77.971 325.971 82 321 82C316.029 82 312 77.971 312 73C312 68.029 316.029 64 321 64Z" class="" fill="#000000" fill-opacity="1"></path><path d="M187 96C191.971 96 196 100.029 196 105C196 109.971 191.971 114 187 114C182.029 114 178 109.971 178 105C178 100.029 182.029 96 187 96Z" class="" fill="#000000" fill-opacity="1"></path><path d="M325 96C329.971 96 334 100.029 334 105C334 109.971 329.971 114 325 114C320.029 114 316 109.971 316 105C316 100.029 320.029 96 325 96Z" class="" fill="#000000" fill-opacity="1"></path><path d="M183 135C187.971 135 192 139.029 192 144C192 148.971 187.971 153 183 153C178.029 153 174 148.971 174 144C174 139.029 178.029 135 183 135Z" class="" fill="#000000" fill-opacity="1"></path><path d="M231 135C235.971 135 240 139.029 240 144C240 148.971 235.971 153 231 153C226.029 153 222 148.971 222 144C222 139.029 226.029 135 231 135Z" class="" fill="#000000" fill-opacity="1"></path><path d="M281 135C285.971 135 290 139.029 290 144C290 148.971 285.971 153 281 153C276.029 153 272 148.971 272 144C272 139.029 276.029 135 281 135Z" class="" fill="#000000" fill-opacity="1"></path><path d="M329 135C333.971 135 338 139.029 338 144C338 148.971 333.971 153 329 153C324.029 153 320 148.971 320 144C320 139.029 324.029 135 329 135Z" class="" fill="#000000" fill-opacity="1"></path><path d="M192 164L320 164L256 192L192 164Z" class="" fill="#000000" fill-opacity="1"></path><path d="M176 183C201.983 183 225 200.247 225 224C225 247.753 201.983 265 176 265C150.017 265 127 247.753 127 224C127 200.247 150.017 183 176 183Z" class="" fill="#024592" fill-opacity="1"></path><path d="M336 183C361.983 183 385 200.247 385 224C385 247.753 361.983 265 336 265C310.017 265 287 247.753 287 224C287 200.247 310.017 183 336 183Z" class="" fill="#024592" fill-opacity="1"></path><path d="M208 304L160 352L140 352L208 304Z" class="" fill="#000000" fill-opacity="1"></path><path d="M224 304L288 304C288 304 271.085 336 256 336C240.915 336 224 304 224 304Z" class="" fill="#000000" fill-opacity="1"></path><path d="M304 304L372 352L352 352L304 304Z" class="" fill="#000000" fill-opacity="1"></path><path d="M224 368C228.971 368 233 372.029 233 377C233 381.971 228.971 386 224 386C219.029 386 215 381.971 215 377C215 372.029 219.029 368 224 368Z" class="" fill="#000000" fill-opacity="1"></path><path d="M288 368C292.971 368 297 372.029 297 377C297 381.971 292.971 386 288 386C283.029 386 279 381.971 279 377C279 372.029 283.029 368 288 368Z" class="" fill="#000000" fill-opacity="1"></path><path d="M192 384C196.971 384 201 388.029 201 393C201 397.971 196.971 402 192 402C187.029 402 183 397.971 183 393C183 388.029 187.029 384 192 384Z" class="" fill="#000000" fill-opacity="1"></path><path d="M320 384C324.971 384 329 388.029 329 393C329 397.971 324.971 402 320 402C315.029 402 311 397.971 311 393C311 388.029 315.029 384 320 384Z" class="" fill="#000000" fill-opacity="1"></path><path d="M224 400C228.971 400 233 404.029 233 409C233 413.971 228.971 418 224 418C219.029 418 215 413.971 215 409C215 404.029 219.029 400 224 400Z" class="" fill="#000000" fill-opacity="1"></path><path d="M288 400C292.971 400 297 404.029 297 409C297 413.971 292.971 418 288 418C283.029 418 279 413.971 279 409C279 404.029 283.029 400 288 400Z" class="" fill="#000000" fill-opacity="1"></path><path d="M169 407C173.971 407 178 411.029 178 416C178 420.971 173.971 425 169 425C164.029 425 160 420.971 160 416C160 411.029 164.029 407 169 407Z" class="" fill="#000000" fill-opacity="1"></path><path d="M343 407C347.971 407 352 411.029 352 416C352 420.971 347.971 425 343 425C338.029 425 334 420.971 334 416C334 411.029 338.029 407 343 407Z" class="" fill="#000000" fill-opacity="1"></path><path d="M224 432C228.971 432 233 436.029 233 441C233 445.971 228.971 450 224 450C219.029 450 215 445.971 215 441C215 436.029 219.029 432 224 432Z" class="" fill="#000000" fill-opacity="1"></path><path d="M288 432C292.971 432 297 436.029 297 441C297 445.971 292.971 450 288 450C283.029 450 279 445.971 279 441C279 436.029 283.029 432 288 432Z" class="selected" fill="#000000" fill-opacity="1"></path></g></g></svg>