<svg xmlns="http://www.w3.org/2000/svg" viewBox="0 0 512 512" style="height: 512px; width: 512px;"><circle cx="256" cy="256" r="223" fill="#011b8b" fill-opacity="1" stroke="#040000" stroke-opacity="1" stroke-width="33"></circle><g class="" transform="translate(0,69)" style=""><g transform="translate(25.6, 25.6) scale(0.9, 0.9) rotate(0, 256, 256) skewX(0) skewY(0)"><path d="M256 27C227.666 27 201.847 35.54 182.717 49.89C163.587 64.236 151 84.874 151 108C151 116.204 152.796 123.548 155.975 129.975C158.373 135.165 161.667 139.868 165.925 143.732C167.311 144.945 168.745 146.082 170.219 147.162C174.541 150.519 179.421 153.302 184.692 155.472C204.168 163.482 228.997 165.472 255.999 165.472C259.779 165.472 263.509 165.427 267.196 165.338C275.963 165.184 284.666 164.698 293.161 163.625C305.681 162.145 317.217 159.622 327.306 155.471C330.886 153.998 334.288 152.241 337.458 150.214C338.871 149.432 340.273 148.624 341.65 147.764C347.39 143.589 351.917 137.989 355.162 131.632C358.312 125.856 360.315 119.292 360.85 111.988C361.066 109.815 361.17 107.63 361.135 105.448C361.07 105.433 361.005 105.418 360.939 105.4C360.036 83.332 347.692 63.698 329.282 49.89C310.153 35.542 284.333 27 256 27Z" class="" fill="#ffffff" fill-opacity="1"></path><path d="M256 45C280.686 45 302.868 52.578 318.482 64.29C334.097 76 343 91.36 343 108C343 124.64 335.727 132.542 320.457 138.824C305.187 145.107 282.017 147.474 256 147.474C229.983 147.474 206.813 145.107 191.543 138.824C176.273 132.542 169 124.64 169 108C169 91.36 177.903 76 193.518 64.29C209.132 52.577 231.314 45 256 45Z" class="" fill="#011b8b" fill-opacity="0.91"></path><path d="M218.225 62.748C212.087 62.802 205.535 65.265 200.057 69.576C188.863 78.384 185.15 92.336 191.762 100.738C198.374 109.14 212.808 108.808 224 100C235.193 91.19 238.906 77.24 232.293 68.838C229.178 64.881 224.133 62.696 218.225 62.748Z" class="" fill="#ffffff" fill-opacity="1"></path><path d="M132.935 110.528C121.557 114.115 110.991 118.168 101.398 122.623C62.448 140.707 41 164.52 41 188C41 211.48 62.448 235.293 101.398 253.377C140.348 271.46 195.273 283 256 283C316.727 283 371.65 271.46 410.602 253.377C449.552 235.293 471 211.48 471 188C471 164.52 449.552 140.707 410.602 122.623C401.069 118.197 390.574 114.166 379.277 110.598C378.28 130.695 369.034 150.283 351.984 162.533L351.762 162.693L351.529 162.84C318.064 183.916 278.201 184.21 242.761 183.092C213.471 182.358 179.378 179.504 153.985 157.212L153.935 157.166L153.885 157.121C140.275 144.809 133.665 127.853 132.935 110.531Z" class="selected" fill="#ffffff" fill-opacity="1"></path><path d="M423.051 157.758C430.723 157.804 438.351 160.368 444.021 166.038C451.001 173.016 453.275 182.962 451.941 192.303C450.606 201.643 445.901 210.825 438.364 218.363C430.826 225.901 421.644 230.605 412.304 231.939C402.964 233.273 393.017 230.999 386.038 224.019C379.058 217.039 376.786 207.096 378.12 197.755C379.454 188.415 384.157 179.232 391.695 171.695C399.233 164.155 408.415 159.453 417.755 158.118C419.507 157.868 421.28 157.745 423.051 157.756Z" class="" fill="#000000" fill-opacity="1"></path><path d="M87.009 159.698C88.779 159.688 90.552 159.812 92.304 160.062C101.644 161.397 110.828 166.099 118.366 173.637C125.904 181.175 130.606 190.357 131.94 199.699C133.274 209.039 131 218.983 124.02 225.962C117.042 232.942 107.1 235.212 97.758 233.878C88.418 232.542 79.233 227.841 71.695 220.303C64.157 212.765 59.455 203.581 58.121 194.24C56.788 184.9 59.061 174.956 66.041 167.977C71.711 162.305 79.338 159.742 87.009 159.697Z" class="" fill="#000000" fill-opacity="1"></path><path d="M423.789 175.744C422.711 175.7 421.551 175.761 420.304 175.939C415.314 176.651 409.382 179.462 404.424 184.421C399.464 189.379 396.654 195.311 395.94 200.301C395.227 205.291 396.372 208.899 398.766 211.291C401.159 213.685 404.766 214.831 409.758 214.118C414.748 213.404 420.676 210.591 425.635 205.633C430.593 200.673 433.405 194.746 434.119 189.756C434.831 184.766 433.685 181.156 431.292 178.764C429.497 176.969 427.018 175.876 423.786 175.742Z" class="" fill="#000000" fill-opacity="1"></path><path d="M86.27 177.686C83.038 177.819 80.56 178.912 78.766 180.706C76.372 183.1 75.226 186.706 75.938 191.696C76.65 196.688 79.465 202.619 84.424 207.578C89.382 212.538 95.31 215.348 100.301 216.061C105.291 216.774 108.901 215.629 111.294 213.235C113.687 210.842 114.834 207.235 114.12 202.245C113.406 197.255 110.595 191.323 105.637 186.365C100.677 181.405 94.747 178.595 89.757 177.882C88.507 177.705 87.347 177.642 86.27 177.688Z" class="" fill="#000000" fill-opacity="1"></path><path d="M256 211C266.66 211 276.48 214.17 284.027 219.83C291.577 225.492 297 234.13 297 244C297 253.87 291.576 262.508 284.027 268.17C276.48 273.83 266.66 277 256 277C245.34 277 235.52 273.83 227.973 268.17C220.423 262.508 215 253.87 215 244C215 234.13 220.424 225.492 227.973 219.83C235.52 214.17 245.34 211 256 211Z" class="" fill="#000000" fill-opacity="1"></path><path d="M256 229C248.987 229 242.806 231.204 238.773 234.23C234.74 237.253 233 240.615 233 244C233 247.385 234.74 250.747 238.773 253.77C242.806 256.796 248.987 259 256 259C263.013 259 269.194 256.796 273.227 253.77C277.26 250.747 279 247.385 279 244C279 240.615 277.26 237.253 273.227 234.23C269.194 231.203 263.013 229 256 229Z" class="" fill="#000000" fill-opacity="1"></path><path d="M200.9 297.898L112 480L400 480L311.1 297.898C293.433 299.925 274.988 301 256 301C237.012 301 218.567 299.925 200.9 297.898Z" class="" fill="#024592" fill-opacity="0"></path></g></g></svg>