<svg xmlns="http://www.w3.org/2000/svg" viewBox="0 0 512 512" style="height: 512px; width: 512px;"><circle cx="256" cy="256" r="256" fill="#00040c" fill-opacity="1"></circle><g class="" transform="translate(0,0)" style=""><g transform="translate(51.2, 51.2) scale(0.8, 0.8) rotate(0, 256, 256) skewX(0) skewY(0)"><path d="M395.9 65.01C385.2 95.57 373.2 123.8 359.2 149.5C390.6 156.2 420.5 158.9 448.3 157C433.3 126.7 415.3 95.81 395.9 65.01Z" class="" fill="#f82dff" fill-opacity="1" stroke="#ffffff" stroke-opacity="1" stroke-width="8"></path><path d="M215.5 70.3C163.8 91.99 95.87 110.5 20.93 127.9C49.74 138.2 156.6 129.3 126.4 145L79.61 169.5C92.58 173.7 108.3 177 124.9 178.2C152.3 180.2 181.4 176.9 186.3 186.8C192.3 200.8 149.4 208.8 133.9 212.7C144.2 217.2 156.1 221.6 168.6 224C190.3 228.1 212.2 226.6 229.8 211.3L236.8 205.2L263.9 238.7C266.8 236.4 269.6 234.1 272.3 231.7C277.6 227.1 282.7 222.3 287.7 217.3C273.6 164.2 265.1 113 215.5 70.3Z" class="" fill="#f82dff" fill-opacity="1" stroke="#ffffff" stroke-opacity="1" stroke-width="8"></path><path d="M429 182.7C421.269 182.722 415.011 189.07 415 196.9C415.011 204.73 421.269 211.078 429 211.1C436.731 211.078 442.989 204.73 443 196.9C442.989 189.07 436.731 182.722 429 182.7Z" class="" fill="#000000" fill-opacity="1" stroke="#ffffff" stroke-opacity="1" stroke-width="8"></path><path d="M466.7 183.8C461.455 183.804 457.204 189.845 457.2 197.3C457.204 204.755 461.455 210.796 466.7 210.8C471.945 210.796 476.196 204.755 476.2 197.3C476.196 189.845 471.945 183.804 466.7 183.8Z" class="selected" fill="#000000" fill-opacity="1" stroke="#ffffff" stroke-opacity="1" stroke-width="8"></path><path d="M317.3 211.6C307.1 223.6 296.1 234.9 284.1 245.3C233.3 289.4 126.6 313.4 32.94 326.9C61.46 341.2 99.29 357.7 138.1 373.3C159.5 355.7 183.3 339.8 210.7 326.9L218.3 343.1C164.1 368.7 124 407.2 89.36 446.8C126.3 447.6 161 445.4 189.6 437.7C223 428.7 247.7 412.9 261.3 386.4L277.3 394.6C272.8 403.5 267.1 411.4 260.6 418.3C262.6 419 264.8 419.7 266.7 420.3C303.5 432.1 338.7 438.6 370.3 436.2C401.8 433.9 429.5 423.1 453.2 399.6C467.6 385.3 477.5 369.5 483.6 352.5C469.7 365.1 457.9 378.1 437.7 384.2C434.9 370.9 437.2 360.8 420.8 346.5C407.5 362 392 369.4 363.7 379.2C369.2 366 366.3 353.1 357.7 338.5C343.8 353.5 327 356.9 295.5 362.2C320.3 323.9 338.3 299.9 342.3 256.1C356 268 367.7 280.6 372.1 295.3C392.4 284.8 391.9 269.6 396.4 255.6C414.3 271.7 426.8 288.2 429.7 305.2C451.4 294.3 461.1 278.9 463.5 265.2C473.5 273.4 483.9 282.1 491.1 292.7C490.1 277.6 487.3 261.9 483 245.5C482.3 242.7 481.5 239.8 480.6 237C431.9 247.1 376.4 226.8 317.3 211.6Z" class="" fill="#f82dff" fill-opacity="1" stroke="#ffffff" stroke-opacity="1" stroke-width="8"></path></g></g></svg>