<svg xmlns="http://www.w3.org/2000/svg" viewBox="0 0 512 512" style="height: 512px; width: 512px;"><circle cx="256" cy="256" r="242" fill="#000000" fill-opacity="1" stroke="#000000" stroke-opacity="1" stroke-width="14"></circle><g class="" transform="translate(0,0)" style=""><g transform="translate(51.2, 51.2) scale(0.8, 0.8) rotate(0, 256, 256) skewX(0) skewY(0)"><path d="M135.074 21.783C80.336 22.005 21.034 64.579 25.658 171.857C25.848 176.241 27.174 185.521 29.268 198.027C40.008 174.807 55.247 151.242 70.477 130.487C83.686 112.483 96.95 96.84 107.756 85.94C113.159 80.49 117.869 76.247 122.148 73.262C123.772 72.13 125.29 71.152 127.082 70.368L128.533 65.748L171.785 67.942L173.424 74.37C173.602 75.07 173.769 75.787 173.945 76.49C199.471 92.164 218.397 117.08 231.625 145.493C229.892 111.098 224.9 81.345 213.883 62.293C199.118 36.762 167.917 21.648 135.074 21.782Z" class="" fill="#f75c03" fill-opacity="1"></path><path d="M376.926 21.783C344.083 21.649 312.882 36.763 298.117 62.295C287.1 81.346 282.107 111.099 280.375 145.494C293.603 117.081 312.529 92.165 338.055 76.492C338.231 75.788 338.398 75.071 338.576 74.371L340.215 67.943L383.467 65.75L384.918 70.369C386.71 71.153 388.228 72.131 389.852 73.263C394.131 76.248 398.842 80.491 404.244 85.941C415.05 96.841 428.314 112.484 441.524 130.486C456.754 151.242 471.992 174.808 482.732 198.027C484.826 185.521 486.152 176.241 486.342 171.857C490.965 64.58 431.664 22.005 376.926 21.783Z" class="selected" fill="#2274a5" fill-opacity="1"></path><path d="M141.746 84.443C138.159 97.155 135.972 109.592 135.936 121.769L160.998 121.113C162.216 109.344 160.35 97.529 157.477 85.24Z" class="" fill="#2274a5" fill-opacity="1"></path><path d="M370.254 84.443L354.524 85.24C351.65 97.529 349.784 109.344 351.002 121.113L376.064 121.769C376.028 109.592 373.841 97.155 370.254 84.443Z" class="" fill="#f75c03" fill-opacity="1"></path><path d="M119.754 99.426C109.946 109.426 97.408 124.208 84.988 141.135C59.499 175.872 34.882 220.453 32.623 248.816C31.559 262.174 38.826 283.042 47.834 300.992C56.842 318.942 66.964 334.051 70.35 339.252C71.118 340.432 71.646 340.64 72.945 340.724C74.245 340.809 76.202 340.289 77.811 339.031C81.028 336.515 84.066 332.188 78.564 321.693C76.547 317.844 68.446 305.811 61.371 292.207C54.296 278.602 47.524 262.862 48.5 247.047C50.28 218.217 69.75 185.617 88.193 158.84C100.385 141.14 111.491 127.33 117.773 119.81C117.9 112.956 118.609 106.16 119.753 99.426Z" class="" fill="#fff" fill-opacity="1"></path><path d="M392.246 99.426C393.391 106.16 394.1 112.956 394.226 119.81C400.509 127.33 411.615 141.14 423.806 158.84C442.251 185.616 461.72 218.217 463.5 247.047C464.476 262.862 457.704 278.602 450.629 292.207C443.554 305.811 435.453 317.844 433.436 321.693C427.934 332.188 430.972 336.515 434.189 339.031C435.799 340.289 437.755 340.809 439.055 340.724C440.355 340.64 440.882 340.432 441.65 339.252C445.037 334.051 455.158 318.942 464.166 300.992C473.174 283.042 480.441 262.174 479.377 248.816C477.118 220.453 452.501 175.872 427.012 141.135C414.592 124.208 402.054 109.425 392.246 99.425Z" class="" fill="#fff" fill-opacity="1"></path><path d="M178.879 102.754C179.479 108.799 179.623 114.984 179.082 121.31C211.197 158.31 222.066 199.97 222.885 242.361C223.189 258.117 217.495 275.11 211.383 289.927C205.27 304.745 198.453 317.3 195.895 322.084C193.115 327.284 193.302 329.988 193.613 331.056C193.925 332.126 194.434 332.718 196.186 333.443C199.689 334.893 206.62 333.059 207.625 331.743C209.371 329.46 218.533 313.713 225.684 296.22C232.834 278.727 238.568 258.204 237.721 244.595C234.573 194.015 214.734 134.805 178.879 102.754Z" class="" fill="#fff" fill-opacity="1"></path><path d="M333.121 102.754C297.266 134.806 277.428 194.015 274.279 244.595C273.432 258.205 279.166 278.727 286.316 296.22C293.467 313.713 302.629 329.46 304.375 331.744C305.38 333.059 312.311 334.893 315.815 333.444C317.566 332.718 318.075 332.125 318.387 331.056C318.698 329.988 318.885 327.283 316.105 322.084C313.548 317.3 306.73 304.744 300.617 289.927C294.505 275.11 288.811 258.117 289.115 242.361C289.935 199.97 300.803 158.311 332.918 121.311C332.378 114.984 332.52 108.799 333.121 102.754Z" class="" fill="#fff" fill-opacity="1"></path><path d="M170.367 138.874L124.525 140.072C118.334 147.872 110.755 157.814 103.015 169.051C85.257 194.832 67.757 227.23 66.465 248.156C65.886 257.53 70.88 271.481 77.34 283.902C83.8 296.324 91.004 306.652 94.508 313.338C102.956 329.456 98.731 345.523 88.898 353.211C83.982 357.055 77.968 359.088 71.775 358.685C67.389 358.4 62.86 356.645 59.227 353.555C67.386 393.742 74.677 428.837 77.631 442.957C88.811 496.417 250.178 529.681 227.229 400.115C224.612 385.343 224.539 363.313 225.512 337.353C224.21 339.45 222.992 341.281 221.926 342.676C213.951 353.108 200.466 354.695 189.303 350.076C183.721 347.766 178.333 342.953 176.334 336.097C174.334 329.242 175.793 321.503 180.02 313.597C182.661 308.657 189.064 296.831 194.744 283.062C200.424 269.294 205.095 253.496 204.887 242.709C204.164 205.31 195.779 170.787 170.367 138.875Z" class="" fill="#f75c03" fill-opacity="1"></path><path d="M341.633 138.874C316.221 170.787 307.836 205.31 307.113 242.709C306.905 253.496 311.576 269.294 317.256 283.062C322.936 296.831 329.339 308.657 331.98 313.597C336.207 321.503 337.666 329.242 335.666 336.097C333.666 342.953 328.279 347.767 322.697 350.076C311.533 354.695 298.049 353.108 290.074 342.676C289.009 341.281 287.79 339.45 286.488 337.353C287.46 363.313 287.388 385.343 284.771 400.115C261.822 529.681 423.188 496.417 434.369 442.957C437.322 428.837 444.614 393.742 452.773 353.554C449.14 356.644 444.611 358.4 440.225 358.685C434.033 359.088 428.018 357.055 423.102 353.211C413.269 345.523 409.044 329.456 417.492 313.338C420.996 306.653 428.2 296.324 434.66 283.902C441.12 271.481 446.114 257.53 445.535 248.156C444.243 227.23 426.743 194.832 408.985 169.051C401.245 157.814 393.666 147.871 387.475 140.072Z" class="" fill="#2274a5" fill-opacity="1"></path></g></g></svg>