<svg xmlns="http://www.w3.org/2000/svg" viewBox="0 0 512 512" style="height: 512px; width: 512px;"><circle cx="256" cy="256" r="236" fill="#4173fa" fill-opacity="1" stroke="#ffffff" stroke-opacity="1" stroke-width="20"></circle><g class="" transform="translate(0,0)" style=""><g transform="translate(460.8, 51.2) scale(-0.8, 0.8) rotate(15, 256, 256) skewX(0) skewY(0)"><path d="M165.98 13.443L99.3 79.56L164.31 145.12L230.988 79.006L165.978 13.443Z" class="" fill="#000000" fill-opacity="1" stroke="#0a0000" stroke-opacity="1" stroke-width="0"></path><path d="M266.6 70.013L157.115 178.573L168.629 190.183L278.116 81.626L266.603 70.016Z" class="" fill="#000000" fill-opacity="1" stroke="#0a0000" stroke-opacity="1" stroke-width="0"></path><path d="M270.81 115.183L187.13 198.158C188.113 242.238 223.964 277.48 268.287 277.48C294.687 277.48 318.073 264.967 332.882 245.537C321.542 247.352 310.698 247.604 301.169 245.587L305.042 227.303C314.71 229.35 331.242 227.803 347.672 223.013C357.455 220.163 367.132 216.146 375.788 211.605C365.836 208.702 355.275 206.327 345.066 205.008C328.328 202.845 312.638 203.648 304.014 207.128L297.021 189.798C304.101 186.94 312.085 185.511 320.611 185.096C329.138 184.68 338.208 185.276 347.461 186.473C347.938 186.533 348.417 186.605 348.894 186.67C344.248 147.114 311.34 116.414 270.81 115.184Z" class="selected" fill="#ffffff" fill-opacity="1"></path><path d="M308.232 145.197C315.762 145.197 321.862 151.297 321.862 158.827C321.862 166.355 315.762 172.457 308.232 172.457C300.704 172.457 294.602 166.355 294.602 158.827C294.602 151.297 300.704 145.197 308.232 145.197Z" class="" fill="#000000" fill-opacity="1" stroke="#0a0000" stroke-opacity="1" stroke-width="0"></path><path d="M252.482 180.299C260.012 180.299 266.112 186.399 266.112 193.929C266.112 201.457 260.012 207.559 252.482 207.559C244.954 207.559 238.852 201.457 238.852 193.929C238.852 186.399 244.954 180.299 252.482 180.299Z" class="" fill="#000000" fill-opacity="1" stroke="#0a0000" stroke-opacity="1" stroke-width="0"></path><path d="M90.33 183.583L71.928 186.847L84.307 256.6L73.564 260.59L42.756 223.62L28.398 235.584L67.674 282.714L109.184 267.294L150.134 307.561C138.414 326.248 131.629 348.359 131.629 372.093C131.629 439.293 185.904 493.569 253.103 493.569C320.303 493.569 374.579 439.292 374.579 372.093C374.579 348.535 367.899 326.573 356.339 307.973L394.144 270.8L423.552 281.723L478.786 328.168L490.813 313.865L444.833 275.201L474.929 239.089L460.571 227.124L429.765 264.094L389.513 249.144L345.163 292.754C339.975 286.736 334.207 281.234 327.943 276.334C311.283 288.787 290.627 296.171 268.288 296.171C239.782 296.171 214.02 284.147 195.803 264.911C182.693 271.921 171.028 281.266 161.357 292.391L113.813 245.641L102.11 249.987L90.33 183.585Z" class="" fill="#ffffff" fill-opacity="1"></path><path d="M306.17 346.31C313.7 346.31 319.8 352.41 319.8 359.94C319.8 367.468 313.7 373.57 306.17 373.57C298.64 373.57 292.54 367.468 292.54 359.94C292.54 352.41 298.64 346.31 306.17 346.31Z" class="" fill="#000000" fill-opacity="1"></path><path d="M304.52 400.822C312.048 400.822 318.148 406.922 318.148 414.452C318.148 421.98 312.048 428.08 304.52 428.08C296.99 428.08 290.89 421.98 290.89 414.45C290.89 406.922 296.99 400.822 304.52 400.822Z" class="" fill="#000000" fill-opacity="1" stroke="#0a0000" stroke-opacity="1" stroke-width="0"></path><path d="M288 444.596C295.53 444.596 301.63 450.696 301.63 458.226C301.63 465.753 295.53 471.856 288 471.856C280.47 471.856 274.37 465.753 274.37 458.226C274.37 450.696 280.47 444.596 288 444.596Z" class="" fill="#000000" fill-opacity="1" stroke="#0a0000" stroke-opacity="1" stroke-width="0"></path></g></g></svg>