<svg xmlns="http://www.w3.org/2000/svg" viewBox="0 0 512 512" style="height: 512px; width: 512px;"><circle cx="256" cy="256" r="256" fill="#ca0000" fill-opacity="1"></circle><g class="" transform="translate(0,0)" style=""><g><path d="M62.81 26.88L45.51 31.88L54.19 61.96L24.83 54.7L20.51 72.18L52.02 79.98L29.49 103.4L42.46 115.8L63.44 94.02L72.12 124.1L89.42 119.1L80.14 86.94L113.7 95.24L118.1 77.76L86.61 69.97L109.1 46.62L96.12 34.14L72.11 59.1L62.81 26.88Z" class="" fill="#ffffff" fill-opacity="1"></path><path d="M312.1 38.05L309.4 52.36L298.9 43.34L287.1 57L298.7 66.92L284.3 71.98L290.3 88.96L303.5 84.32L300.8 98.65L318.4 101.9L321.3 86.31L333.9 97.1L345.7 83.44L334.1 73.52L348.5 68.46L342.5 51.48L326.8 57.02L329.7 41.35L312.1 38.05Z" class="" fill="#ffffff" fill-opacity="1"></path><path d="M455.7 101.1L449.4 121.6L435.4 106.5L422.2 118.7L437.4 135.1L415.6 140.1L419.6 157.7L439.8 153.1L433.5 173.6L450.7 178.8L457.5 156.6L473.9 174.3L487.1 162.1L471.8 145.7L493.6 140.7L489.6 123.1L466.1 128.5L472.9 106.3L455.7 101.1Z" class="" fill="#ffffff" fill-opacity="1"></path><path d="M256 137C210.5 137 172.4 155.9 132.9 181.5C97.6 204.5 61.55 232.7 19.22 256C61.55 279.3 97.6 307.5 132.9 330.5C172.4 356.1 210.5 375 256 375C301.5 375 339.6 356.1 379.1 330.5C414.4 307.5 450.5 279.3 492.8 256C450.5 232.7 414.4 204.5 379.1 181.5C339.6 155.9 301.5 137 256 137Z" class="" fill="#2c0202" fill-opacity="1"></path><path d="M256 151C313.9 151 361 198.1 361 256C361 313.9 313.9 361 256 361C198.1 361 151 313.9 151 256C151 198.1 198.1 151 256 151Z" class="" fill="#ca0000" fill-opacity="1"></path><path d="M256 170.4L226.7 187.3L243.8 216.9C247.7 215.7 251.8 215 256 215C260.2 215 264.3 215.7 268.2 216.9L285.3 187.3L256 170.4Z" class="" fill="#2c0202" fill-opacity="1"></path><path d="M211.1 196.3L181.9 213.2L181.9 247L216 247C217.9 238.8 222.2 231.5 228.2 225.9L211.1 196.3Z" class="" fill="#2c0202" fill-opacity="1"></path><path d="M300.9 196.3L283.8 225.9C289.8 231.5 294.1 238.8 296 247L330.1 247L330.1 213.2L300.9 196.3Z" class="" fill="#2c0202" fill-opacity="1"></path><path d="M256 233C243.2 233 233 243.2 233 256C233 268.8 243.2 279 256 279C268.8 279 279 268.8 279 256C279 243.2 268.8 233 256 233Z" class="" fill="#2c0202" fill-opacity="1"></path><path d="M181.9 265L181.9 298.8L211.1 315.7L228.2 286.1C222.2 280.5 217.9 273.2 216 265L181.9 265Z" class="" fill="#2c0202" fill-opacity="1"></path><path d="M296 265C294.1 273.2 289.8 280.5 283.8 286.1L300.9 315.7L330.1 298.8L330.1 265L296 265Z" class="" fill="#2c0202" fill-opacity="1"></path><path d="M243.8 295.1L226.7 324.7L256 341.6L285.3 324.7L268.2 295.1C264.3 296.3 260.2 297 256 297C251.8 297 247.7 296.3 243.8 295.1Z" class="" fill="#2c0202" fill-opacity="1"></path><path d="M75.68 339.4L75.68 360.8L57.88 350.5L48.88 366.1L68.19 377.2L48.88 388.4L57.88 404L75.68 393.7L75.68 415.1L93.68 415.1L93.68 392L114.5 404L123.5 388.4L104.2 377.2L123.5 366.1L114.5 350.5L93.68 362.5L93.68 339.4L75.68 339.4Z" class="" fill="#ffffff" fill-opacity="1"></path><path d="M420.3 374.9L418 390.3L406.4 381L395.2 395L407.8 405.1L392.7 411L399.3 427.8L413 422.5L410.7 437.8L428.5 440.6L431.1 423.7L444.9 434.8L456.1 420.8L443.5 410.7L458.6 404.8L452 388L435.6 394.4L438.1 377.7L420.3 374.9Z" class="" fill="#ffffff" fill-opacity="1"></path><path d="M219.3 402.6L210.7 428.8L193 409.1L179.6 421.1L198.7 442.4L170.8 448.2L174.4 465.8L200.4 460.4L191.8 486.5L209 492.1L218.2 464.1L238.6 486.8L252 474.8L232.9 453.6L260.9 447.7L257.3 430.1L227.3 436.4L236.5 408.2L219.3 402.6Z" class="selected" fill="#ffffff" fill-opacity="1"></path></g></g></svg>