<svg xmlns="http://www.w3.org/2000/svg" viewBox="0 0 512 512" style="height: 512px; width: 512px;"><circle cx="256" cy="256" r="256" fill="#0e7080" fill-opacity="1"></circle><g class="" transform="translate(9,-8)" style=""><g transform="translate(512, 0) scale(-1, 1) rotate(0, 256, 256) skewX(0) skewY(0)"><path d="M17.156 16.438L17.156 58.094L192.78 234.22L141.344 285.625L129.374 297.625L140.782 309L247.472 415.688L222.94 440.218L348.69 494.062L294.815 368.344L271.408 391.75L176.688 297.03L225.128 248.594L360.908 384.344L336.938 408.281L462.658 462.157L408.814 336.437L384.846 360.407L249.066 224.657L297.533 176.187L392.253 270.907L368.878 294.313L494.598 348.157L440.722 222.437L416.189 246.97L309.5 140.28L298.094 128.906L286.124 140.876L234.656 192.312L58.812 16.438L17.157 16.438Z" class="selected" fill="#d0021b" fill-opacity="1" stroke="#ffffff" stroke-opacity="1" stroke-width="8"></path></g></g></svg>