<svg xmlns="http://www.w3.org/2000/svg" viewBox="0 0 512 512" style="height: 512px; width: 512px;"><defs><filter id="shadow-1" height="300%" width="300%" x="-100%" y="-100%"><feFlood flood-color="rgba(99, 105, 209, 1)" result="flood"></feFlood><feComposite in="flood" in2="SourceGraphic" operator="atop" result="composite"></feComposite><feGaussianBlur in="composite" stdDeviation="63" result="blur"></feGaussianBlur><feOffset dx="0" dy="0" result="offset"></feOffset><feComposite in="SourceGraphic" in2="offset" operator="over"></feComposite></filter></defs><circle cx="256" cy="256" r="256" fill="#37123c" fill-opacity="1"></circle><g class="" transform="translate(0,0)" style=""><path d="M256 32a120 125 0 0 0-94.666 48.426A160 160 0 0 1 312.8 240a160 160 0 0 1-2.7 28.555A120 125 0 0 0 376 157 120 125 0 0 0 256 32zM82.77 325.59c-20.904.844-42.686 5.52-64.06 14.258C41.442 400.102 102.352 459.58 208 400c-11.572-32.98-37.17-55.623-69.445-66.71a11.164 13.258 0 0 0-3.733-.778 11.164 13.258 0 0 0-11.162 13.258 11.164 13.258 0 0 0 11.162 13.257 11.164 13.258 0 0 0 .317-.013c-3.8 27.26-9.967 50.298-15.478 50.662-12.182.507-29.582-40.02-36.892-84.086zm346.46 0c-7.31 44.066-24.71 84.593-36.892 84.086-5.727-.378-12.157-25.236-15.908-53.873a13.258 21.127 82.128 0 0 11.097.418 13.258 21.127 82.128 0 0 19.112-16.027 13.258 21.127 82.128 0 0-22.745-10.238 13.258 21.127 82.128 0 0-10.4 3.318c-32.3 11.08-57.916 33.73-69.495 66.727 105.647 59.58 166.557.102 189.29-60.152-21.374-8.74-43.156-13.414-64.06-14.258z" fill="#faf8fe" fill-opacity="1" transform="translate(25.6, 25.6) scale(0.9, 0.9) rotate(0, 256, 256) skewX(0) skewY(0)" filter="url(#shadow-1)"></path></g></svg>